<svg viewBox="0 0 1280 800" xmlns="http://www.w3.org/2000/svg" fill-rule="evenodd" clip-rule="evenodd"
    stroke-linecap="round" stroke-linejoin="round" stroke-miterlimit="1.5">
    <path id="outlines"
        d="M130.281 297.962c23.359-14.573 995.863-37.097 1027.31.699 14.548 17.487 62.14 207.666 68.256 247.156 1.944 12.558 9.276 28.134 3.1 40.013-7.442 14.314-29.329 45.503-47.754 45.875-35.199.71-1007.15 9.137-1066.78 10.784-16.377.453-39.728-1.977-51.852-15.651-10.019-11.3-14.708-25.179-16.229-40.198-3.593-35.488 73.18-281.96 83.949-288.678z"
        fill="#94af5c" stroke="#000" stroke-width="10.43" />
    <path id="pantograph"
        d="M1002.12 280.74l-.21-47.923s-12.987-27.184-20.33-38.339c-5.506-8.365-22.352-38.192-33.075-44.929-2.638-1.658-77.603 1.098-99.132 1.098"
        fill="none" stroke="#000" stroke-width="10.43" />
    <path id="roof-box" fill="#0d0d0d" stroke="#000" stroke-width="1.12" d="M873.275 238.681h128.849v42.059H873.275z" />
    <path id="back-panel"
        d="M435.434 566.023c0-5.915-4.802-10.718-10.718-10.718H93.299c-5.915 0-10.718 4.803-10.718 10.718v21.436c0 5.915 4.803 10.718 10.718 10.718h331.417c5.916 0 10.718-4.803 10.718-10.718v-21.436z"
        fill="#bedf7c" stroke="#778d4c" stroke-width=".5" />
    <path id="mid-panel"
        d="M810.302 566.656c0-5.916-4.803-10.718-10.718-10.718H609.452c-5.916 0-10.718 4.802-10.718 10.718v21.436c0 5.915 4.802 10.718 10.718 10.718h190.132c5.915 0 10.718-4.803 10.718-10.718v-21.436z"
        fill="#bedf7c" stroke="#778d4c" stroke-width=".5" />
    <path id="stripe-top"
        d="M1152.05 318.779a2.637 2.637 0 00-2.635-2.635H142.825a2.637 2.637 0 00-2.635 2.635v5.269a2.636 2.636 0 002.635 2.634h1006.59a2.636 2.636 0 002.635-2.634v-5.269z"
        fill="#a7d44e" stroke="#778d4c" stroke-width=".5" />
    <path id="stripe-lower"
        d="M1139.52 341.14a2.636 2.636 0 00-2.634-2.635H152.909a2.637 2.637 0 00-2.635 2.635v5.268a2.637 2.637 0 002.635 2.635h983.977a2.636 2.636 0 002.634-2.635v-5.268z"
        fill="#a7d44e" stroke="#778d4c" stroke-width=".5" />
    <path id="front-panel"
        d="M1198.92 565.19c0-5.915-4.802-10.717-10.718-10.717H981.311c-5.915 0-10.718 4.802-10.718 10.717v21.436c0 5.916 4.803 10.718 10.718 10.718h206.891c5.916 0 10.718-4.802 10.718-10.718V565.19z"
        fill="#bedf7c" stroke="#778d4c" stroke-width=".5" />
    <path id="window-back-6" fill="#778d4c" stroke="#698d22" stroke-width="4"
        d="M229.364 364.034h78.82v170.469h-78.82z" />
    <path id="window-back-5" fill="#778d4c" stroke="#698d22" stroke-width="4"
        d="M353.909 364.034h78.82v170.469h-78.82z" />
    <path id="door-back" fill="#778d4c" stroke="#698d22" stroke-width="4" d="M478.453 364.034h78.82v253.939h-78.82z" />
    <path id="window-mid-4" fill="#778d4c" stroke="#698d22" stroke-width="4"
        d="M602.998 364.034h78.82v170.469h-78.82z" />
    <path id="window-mid-3" fill="#778d4c" stroke="#698d22" stroke-width="4"
        d="M727.543 364.034h78.82v170.469h-78.82z" />
    <path id="door-front" fill="#778d4c" stroke="#698d22" stroke-width="4" d="M852.087 364.034h78.82v253.939h-78.82z" />
    <path id="window-2" fill="#778d4c" stroke="#698d22" stroke-width="4" d="M976.632 364.034h78.82v170.469h-78.82z" />
    <path id="window-front" d="M1101.18 532.59l.933-168.556h53.995l12.381 34.328 31.485 133.752-98.794.476z"
        fill="#778d4c" stroke="#698d22" stroke-width="4" />
    <path id="window-back" d="M183.639 532.59l-.933-168.556h-53.995l-12.382 34.328-31.484 133.752 98.794.476z"
        fill="#778d4c" stroke="#698d22" stroke-width="4" />
</svg>